<svg width="512" height="512" fill="none" xmlns="http://www.w3.org/2000/svg"><path d="M320.978 106.616a166.076 166.076 0 0 0-64.929-13.1c-23.044 0-44.974 4.652-64.924 13.1L250.754 3.044a6.046 6.046 0 0 1 10.497 0l59.68 103.572h.047Z" fill="url(#a)"/><path d="M175.257 114.373c-39.303 21.812-68.842 59.052-80.58 103.573L50.34 104.718c-1.716-4.349 1.938-8.92 6.537-8.232l118.379 17.887Z" fill="url(#b)"/><path d="M124.69 364.025 4.295 326.781c-4.478-1.376-5.766-7.111-2.37-10.259l89.445-83.188a169.839 169.839 0 0 0-2.239 27.458c0 38.969 13.291 74.829 35.564 103.233h-.005Z" fill="url(#c)"/><path d="m253.557 428.079-105.563 72.1a6.038 6.038 0 0 1-8.429-1.592 6.064 6.064 0 0 1-1.028-2.974l-9.42-126.248c30.099 35.341 74.645 57.927 124.44 58.662v.052Z" fill="url(#d)"/><path d="m382.597 369.884-9.373 125.602a6.093 6.093 0 0 1-1.037 2.966 6.066 6.066 0 0 1-5.459 2.638 6.064 6.064 0 0 1-2.962-1.033L258.42 428.074c49.663-.688 94.078-23.103 124.177-58.19Z" fill="url(#e)"/><path d="m507.724 326.396-119.879 37.07a166.725 166.725 0 0 0 35.132-102.673c0-9.481-.819-18.792-2.324-27.844l89.394 83.146c3.438 3.19 2.107 8.92-2.323 10.258v.043Z" fill="url(#f)"/><path d="m461.757 104.935-44.288 113.186c-11.696-44.483-41.151-81.676-80.322-103.573l118.077-17.845c4.6-.688 8.249 3.878 6.533 8.232Z" fill="url(#g)"/><path d="M256.048 464.192c-24.639 0-44.584 20.003-44.584 44.699h89.215c0-24.696-19.95-44.699-44.584-44.699h-.047Z" fill="url(#h)"/><path d="M419.107 390.961c-15.351 19.31-12.214 47.456 7.049 62.845l55.599-69.913c-19.264-15.386-47.345-12.238-62.691 7.068h.043Z" fill="url(#i)"/><path d="M455.651 218.077c5.46 24.098 29.412 39.139 53.407 33.621L489.192 164.5c-24.036 5.476-39.043 29.484-33.541 53.535v.042Z" fill="url(#j)"/><path d="M346.224 81.312c22.183 10.734 48.844 1.38 59.548-20.903l-80.364-38.79c-10.704 22.241-1.378 48.959 20.853 59.698h-.042l.005-.005Z" fill="url(#k)"/><path d="M163.861 81.312c22.189-10.73 31.52-37.452 20.811-59.693l-80.364 38.79c10.704 22.241 37.365 31.595 59.553 20.86v.043Z" fill="url(#l)"/><path d="M57.613 218.077c5.455-24.093-9.547-48.059-33.584-53.53L4.206 251.74c24.032 5.476 47.942-9.565 53.407-33.663Z" fill="url(#m)"/><path d="m36.54 383.893 55.64 69.913c19.268-15.389 22.405-43.535 7.054-62.845-15.35-19.306-43.436-22.454-62.695-7.068Z" fill="url(#n)"/><defs><linearGradient id="a" x1="180.073" y1="53.299" x2="320.978" y2="53.299" gradientUnits="userSpaceOnUse"><stop stop-color="#E35930"/><stop offset="1" stop-color="#E84125"/></linearGradient><linearGradient id="b" x1="41.354" y1="157.173" x2="175.257" y2="157.173" gradientUnits="userSpaceOnUse"><stop stop-color="#E35930"/><stop offset="1" stop-color="#E84125"/></linearGradient><linearGradient id="c" x1="-3.964" y1="298.678" x2="124.69" y2="298.678" gradientUnits="userSpaceOnUse"><stop stop-color="#E35930"/><stop offset="1" stop-color="#E84125"/></linearGradient><linearGradient id="d" x1="126.751" y1="435.316" x2="253.557" y2="435.316" gradientUnits="userSpaceOnUse"><stop stop-color="#E35930"/><stop offset="1" stop-color="#E84125"/></linearGradient><linearGradient id="e" x1="254.116" y1="435.486" x2="382.597" y2="435.486" gradientUnits="userSpaceOnUse"><stop stop-color="#E35930"/><stop offset="1" stop-color="#E84125"/></linearGradient><linearGradient id="f" x1="379.973" y1="298.208" x2="511.98" y2="298.208" gradientUnits="userSpaceOnUse"><stop stop-color="#E35930"/><stop offset="1" stop-color="#E84125"/></linearGradient><linearGradient id="g" x1="326.57" y1="157.348" x2="462.189" y2="157.348" gradientUnits="userSpaceOnUse"><stop stop-color="#E35930"/><stop offset="1" stop-color="#E84125"/></linearGradient><linearGradient id="h" x1="275.721" y1="468.706" x2="242.147" y2="526.717" gradientUnits="userSpaceOnUse"><stop stop-color="#E35930"/><stop offset="1" stop-color="#E84125"/></linearGradient><linearGradient id="i" x1="434.97" y1="377.574" x2="459.517" y2="439.963" gradientUnits="userSpaceOnUse"><stop stop-color="#E35930"/><stop offset="1" stop-color="#E84125"/></linearGradient><linearGradient id="j" x1="455.562" y1="197.66" x2="519.525" y2="217.338" gradientUnits="userSpaceOnUse"><stop stop-color="#E35930"/><stop offset="1" stop-color="#E84125"/></linearGradient><linearGradient id="k" x1="330.393" y1="68.712" x2="385.754" y2="31.049" gradientUnits="userSpaceOnUse"><stop stop-color="#E35930"/><stop offset="1" stop-color="#E84125"/></linearGradient><linearGradient id="l" x1="145.045" y1="86.133" x2="150.064" y2="19.255" gradientUnits="userSpaceOnUse"><stop stop-color="#E35930"/><stop offset="1" stop-color="#E84125"/></linearGradient><linearGradient id="m" x1="50.144" y1="236.219" x2=".985" y2="190.724" gradientUnits="userSpaceOnUse"><stop stop-color="#E35930"/><stop offset="1" stop-color="#E84125"/></linearGradient><linearGradient id="n" x1="109.205" y1="408.457" x2="43.038" y2="418.418" gradientUnits="userSpaceOnUse"><stop stop-color="#E35930"/><stop offset="1" stop-color="#E84125"/></linearGradient></defs></svg>