<svg width="65" height="26" viewBox="0 0 65 26" fill="none" xmlns="http://www.w3.org/2000/svg">
<path d="M16.9005 13.8707C16.9005 17.3063 15.7418 20.1884 13.4245 22.5104C11.1072 24.839 8.28379 26 4.95429 26H0V21.0187H4.95429C6.92536 21.0187 8.58343 20.3369 9.92854 18.9667C11.2737 17.6033 11.9462 15.9024 11.9462 13.8775L11.9063 0H16.9005V13.8707Z" fill="white"/>
<path d="M20.4628 0.235352H25.4171L25.3372 5.13567H20.4229L20.4628 0.235352ZM20.4628 7.12009H25.4171V25.9924H20.4229L20.4628 7.12009Z" fill="white"/>
<path d="M34.0615 5.3804H42.5716V10.4022H33.9816V17.3544C33.9816 18.3871 34.3012 19.2511 34.9471 19.9531C35.593 20.6551 36.3988 21.0128 37.3643 21.0128H42.5251V25.9941H37.4109C35.0669 25.9941 33.0892 25.1504 31.4778 23.4562C29.8663 21.762 29.0605 19.7034 29.0605 17.2667V0.0683594H33.9749L34.0548 5.37364L34.0615 5.3804Z" fill="white"/>
<path d="M62.043 23.0368C60.0719 25.0145 57.6614 25.9999 54.8113 25.9999C51.9613 25.9999 49.5174 25.0077 47.5597 23.0165C45.6019 21.0253 44.623 18.5887 44.623 15.6931C44.623 12.7974 45.6086 10.354 47.5796 8.34934C49.5507 6.34467 51.9613 5.3457 54.8113 5.3457C57.6614 5.3457 60.0719 6.34467 62.043 8.34934C64.0141 10.354 64.9996 12.7974 64.9996 15.6931C64.9996 18.5887 64.0141 21.0659 62.043 23.0368ZM58.4671 11.8525C57.4949 10.8602 56.2763 10.3675 54.8113 10.3675C53.3464 10.3675 52.1078 10.8805 51.0956 11.9132C50.0834 12.9459 49.5773 14.2014 49.5773 15.6931C49.5773 17.1848 50.0834 18.4469 51.0956 19.4729C52.1078 20.5056 53.3464 21.0186 54.8113 21.0186C56.2763 21.0186 57.5482 20.5124 58.547 19.4932C59.5459 18.474 60.0453 17.2118 60.0453 15.6931C60.0453 14.2554 59.4393 12.8447 58.4671 11.8525Z" fill="white"/>
</svg>
