<svg xmlns="http://www.w3.org/2000/svg" viewBox="-1 -4 29 24" fill="none">
  <path d="M18.8759 4.07353L20.4363 5.90687C20.6149 6.11279 20.7733 6.28217 20.8373 6.37849C21.304 6.84225 21.5656 7.46902 21.5653 8.12214C21.5214 8.89268 21.0193 9.41744 20.5542 9.97873L19.4623 11.2607L18.8928 11.925C18.8723 11.9479 18.8592 11.9762 18.8549 12.0064C18.8506 12.0366 18.8554 12.0674 18.8686 12.0949C18.8819 12.1225 18.9031 12.1456 18.9295 12.1615C18.956 12.1773 18.9865 12.1851 19.0175 12.184H24.7096C25.579 12.184 26.6743 12.9147 26.6103 14.024C26.6085 14.5282 26.4045 15.0112 26.0427 15.3678C25.681 15.7243 25.1908 15.9253 24.6792 15.9271H15.7653C15.1789 15.9271 13.6017 15.9902 13.1602 14.6451C13.0663 14.364 13.0535 14.0628 13.1232 13.7749C13.2515 13.3493 13.4545 12.9491 13.723 12.5926C14.1713 11.9283 14.6566 11.2641 15.1351 10.6197C15.7518 9.77613 16.3854 8.9591 17.0089 8.0989C17.031 8.0709 17.043 8.03642 17.043 8.00092C17.043 7.96542 17.031 7.93094 17.0089 7.90294L14.7442 5.24594C14.7294 5.22668 14.7103 5.21105 14.6884 5.20029C14.6665 5.18954 14.6423 5.18394 14.6178 5.18394C14.5933 5.18394 14.5691 5.18954 14.5472 5.20029C14.5253 5.21105 14.5062 5.22668 14.4914 5.24594C13.8848 6.053 11.2292 9.62667 10.663 10.3507C10.0968 11.0747 8.70159 11.1146 7.92984 10.3507L4.38787 6.84678C4.36524 6.82441 4.33638 6.80916 4.30495 6.80298C4.27352 6.79679 4.24093 6.79995 4.21133 6.81205C4.18172 6.82415 4.15642 6.84464 4.13865 6.87093C4.12089 6.89722 4.11144 6.92812 4.11152 6.95971V13.6985C4.11986 14.1767 3.97616 14.6455 3.70058 15.0392C3.425 15.4329 3.03133 15.7318 2.57475 15.8939C2.28301 15.994 1.97122 16.0238 1.66538 15.981C1.35954 15.9382 1.06852 15.824 0.81657 15.6479C0.564624 15.4717 0.359058 15.2388 0.217014 14.9684C0.0749705 14.6981 0.000564258 14.3982 0 14.0938V1.97782C0.0203051 1.54119 0.179723 1.12198 0.455602 0.77974C0.731481 0.437504 1.10979 0.189657 1.53676 0.0714183C1.90302 -0.0247429 2.28856 -0.0237807 2.65431 0.0742068C3.02007 0.172194 3.35304 0.363725 3.61949 0.62939L9.06556 6.00318C9.08186 6.01951 9.1016 6.0321 9.12339 6.04006C9.14517 6.04802 9.16847 6.05117 9.19163 6.04927C9.21478 6.04736 9.23723 6.04046 9.25738 6.02906C9.27753 6.01765 9.29488 6.00201 9.30821 5.98326L13.1771 0.705779C13.3559 0.491534 13.58 0.318396 13.8338 0.198491C14.0876 0.078586 14.365 0.0148124 14.6464 0.0116362H24.7096C24.985 0.0120836 25.2571 0.0704765 25.5077 0.182911C25.7584 0.295345 25.9818 0.459228 26.163 0.663599C26.3442 0.86797 26.4791 1.10812 26.5585 1.36798C26.638 1.62785 26.6602 1.90144 26.6238 2.17045C26.5529 2.63712 26.3126 3.0626 25.9476 3.36798C25.5826 3.67335 25.1175 3.83789 24.6388 3.83108H19.004C18.9757 3.83176 18.9481 3.83991 18.924 3.85468C18.9 3.86945 18.8804 3.8903 18.8673 3.91506C18.8543 3.93982 18.8482 3.96758 18.8497 3.99545C18.8512 4.02332 18.8602 4.05029 18.8759 4.07353Z" fill="white"/>
</svg>
