<svg xmlns="http://www.w3.org/2000/svg" viewBox="0 0 40 40" fill="none">
  <path d="M34.9993 15.0744C34.9993 12.0864 32.4345 10 28.7631 10C25.778 10 23.7205 11.461 21.3378 13.153C20.9392 13.4357 20.5271 13.7288 20.1023 14.0204C18.8765 14.8612 17.6027 15.6813 16.4406 16.4059C16.3245 16.4784 16.1799 16.488 16.0555 16.4318C15.1309 16.0151 13.2997 15.3475 11.0481 15.3475C6.04898 15.3475 5 18.069 5 20.3523C5 22.1656 6.09918 23.6755 8.17765 24.7184C8.81678 25.0389 9.45291 25.2668 9.9714 25.4222C10.3745 25.5436 10.6944 25.8463 10.8301 26.2401C10.9657 26.6339 11.126 27.0557 11.3246 27.4895C11.5441 27.9691 11.8064 28.4953 12.1023 29.0541C12.4193 29.6507 13.0464 30 13.6945 30C13.9283 30 14.1651 29.9548 14.3906 29.8594C17.7129 28.4553 22.921 26.7064 28.8687 26.3467C29.902 26.2838 30.6857 25.4333 30.6535 24.4097C30.6385 23.9309 30.6138 23.4846 30.5808 23.0842C30.5561 22.7837 30.5231 22.4869 30.4887 22.213C30.4235 21.6934 30.6318 21.1776 31.0424 20.8467C31.453 20.5159 31.9242 20.1132 32.4038 19.6484C34.1264 17.9794 35 16.4407 35 15.0744H34.9993ZM14.5419 28.0357C14.3824 28.0986 14.2115 28.1349 14.0399 28.1223C13.6226 28.0912 13.2427 27.8344 13.0719 27.4362C12.9812 27.2245 12.8958 27.0202 12.8066 26.827C12.6186 26.4163 12.462 25.9951 12.3421 25.6384C12.2267 25.2942 12.3833 24.9182 12.7122 24.7583C13.4465 24.4009 14.6409 23.9671 15.7962 23.6652C15.9079 23.6363 16.0053 23.5645 16.057 23.4631C16.4803 22.6371 15.8007 21.9917 15.1549 22.1693C15.1136 22.1804 14.1306 22.4499 13.1063 22.8392C12.4987 23.0701 12.0109 23.2884 11.6273 23.506C11.0676 23.8236 10.3977 23.8902 9.79308 23.6659C8.40468 23.1508 6.62666 22.1412 6.62666 20.3538C6.62666 18.7729 7.12867 16.9588 11.0451 16.9588C12.0132 16.9588 12.8966 17.1053 13.6361 17.2955C13.992 17.3873 14.0594 17.858 13.7432 18.0453C12.7385 18.6411 12.0911 19.0075 12.0746 19.0171C11.6842 19.2377 11.5486 19.7299 11.7719 20.1155C11.9952 20.5011 12.4934 20.635 12.8838 20.4145C12.91 20.3997 14.5472 19.4723 16.6953 18.1482C16.7066 18.1415 16.7178 18.1341 16.7291 18.1275C18.056 17.3096 19.574 16.3415 21.0276 15.3453C21.4637 15.0463 21.8818 14.7495 22.2856 14.463C24.5282 12.871 26.2995 11.6128 28.7601 11.6128C31.5159 11.6128 33.3673 13.005 33.3673 15.0773C33.3673 16.5813 31.3436 18.5316 29.9424 19.6558C29.5588 19.9637 29.0628 20.0955 28.572 20.0333C28.4312 20.0155 28.2895 20 28.1479 19.9867C27.849 19.9593 27.6766 19.6381 27.8212 19.3775C28.5211 18.1215 28.8148 17.3481 28.8313 17.3044C28.9871 16.8877 28.7728 16.4259 28.351 16.2712C27.9299 16.1158 27.4609 16.3282 27.3035 16.7441C27.299 16.7567 26.8397 17.9543 25.6896 19.7905C25.6199 19.9016 25.5 19.9734 25.3674 19.9837C25.0819 20.0059 24.8624 19.7402 24.9388 19.4686C25.1396 18.7558 25.1741 18.4294 25.1786 18.3769C25.2168 17.9343 24.8856 17.539 24.4368 17.5013C23.9865 17.4643 23.5939 17.7862 23.5557 18.2296C23.5557 18.2355 23.492 18.7647 23.0417 20.0718C22.993 20.2139 22.8693 20.3205 22.7202 20.3501C21.6705 20.5544 20.9684 20.7609 20.8943 20.7831C20.4634 20.9118 20.2199 21.3604 20.3503 21.786C20.4799 22.2108 20.934 22.4528 21.3655 22.324C21.385 22.3181 22.2205 22.0739 23.435 21.8592L23.4725 21.854C23.5437 21.8481 23.9123 21.78 23.9288 21.7771C25.0924 21.5972 26.5115 21.4684 27.8819 21.5802C28.3997 21.6224 28.8185 22.0139 28.8807 22.5231C28.9077 22.7466 28.9324 22.982 28.9526 23.2189C28.9706 23.435 28.9856 23.6659 28.9984 23.9094C29.0111 24.1529 28.9429 24.6858 28.3862 24.7117C27.8939 24.7347 25.739 24.7458 21.4262 25.7664C18.1354 26.545 15.2006 27.7781 14.5397 28.0394L14.5419 28.0357Z" fill="white"/>
</svg>