<svg xmlns="http://www.w3.org/2000/svg" viewBox="0 0 128 128" fill="none">
  <!-- Orca DEX: Circular aqua badge with stylized orca whale icon -->
  <circle cx="64" cy="64" r="64" fill="#00D18C"/>
  <!-- Whale body - round orca shape -->
  <ellipse cx="64" cy="58" rx="32" ry="28" fill="#FFFFFF"/>
  <!-- Dark orca cap/top -->
  <path d="M32 52C32 36 46 30 64 30C82 30 96 36 96 52C96 56 94 60 90 63C86 66 80 68 74 68L64 72L54 68C48 68 42 66 38 63C34 60 32 56 32 52Z" fill="#1B1E2E"/>
  <!-- White eye patch -->
  <ellipse cx="78" cy="48" rx="8" ry="6" fill="#FFFFFF"/>
  <ellipse cx="50" cy="48" rx="8" ry="6" fill="#FFFFFF"/>
  <!-- Eyes -->
  <circle cx="79" cy="47" r="3" fill="#1B1E2E"/>
  <circle cx="51" cy="47" r="3" fill="#1B1E2E"/>
  <!-- Smile -->
  <path d="M54 58Q64 66 74 58" stroke="#1B1E2E" stroke-width="2.5" stroke-linecap="round" fill="none"/>
  <!-- Tail flukes -->
  <path d="M48 82L40 94C39 96 40 98 43 98H54L52 86L48 82Z" fill="#FFFFFF"/>
  <path d="M80 82L88 94C89 96 88 98 85 98H74L76 86L80 82Z" fill="#FFFFFF"/>
  <!-- Side fins -->
  <path d="M30 62L20 72C18 74 20 77 23 76L34 70L30 62Z" fill="#FFFFFF"/>
  <path d="M98 62L108 72C110 74 108 77 105 76L94 70L98 62Z" fill="#FFFFFF"/>
</svg>
