<svg xmlns="http://www.w3.org/2000/svg" viewBox="0 0 128 128" fill="none">
  <rect width="128" height="128" rx="26" fill="url(#phantom_grad)"/>
  <path d="M110.584 64.914H99.142c0-24.965-20.163-45.198-45.04-45.198-24.372 0-44.203 19.478-45.003 43.819C8.406 87.656 29.07 108.284 53.284 108.284h4.292c21.085 0 42.474-13.764 52.932-32.098.252-.442.076-1.005-.382-1.2l-.004-.002c-1.67-.712-3.56.2-4.128 1.932-.003.008-.005.016-.008.024-5.476 16.118-18.584 25.058-33.174 25.058h-4.292c-17.856 0-33.548-14.074-33.012-31.998.486-16.304 14.236-29.443 30.55-29.443 17.126 0 31.012 13.938 31.012 31.126h-11.538c-1.204 0-2.14 1.068-1.97 2.264.76 5.36 3.396 10.22 7.572 13.676 1.556 1.286 3.854.374 3.854-1.608V72.474c0-.594.482-1.076 1.076-1.076h14.55c2.042 0 3.696-1.654 3.696-3.696v-.094c0-1.498-1.214-2.694-2.712-2.694z" fill="#FFFFFF"/>
  <circle cx="42" cy="65" r="5" fill="#AB9FF2"/>
  <circle cx="64" cy="65" r="5" fill="#AB9FF2"/>
  <defs>
    <linearGradient id="phantom_grad" x1="0" y1="0" x2="128" y2="128" gradientUnits="userSpaceOnUse">
      <stop stop-color="#534BB1"/>
      <stop offset="1" stop-color="#551BF9"/>
    </linearGradient>
  </defs>
</svg>