<svg xmlns="http://www.w3.org/2000/svg" viewBox="0 0 32 36.9" fill="#FFFFFF">
  <!-- Raydium logo: hexagonal outline with R lettermark, converted to white monochrome -->
  <!-- Outer hexagonal frame -->
  <path d="M30.3,13.9v12.9L16,35L1.7,26.7V10.2L16,1.9l11,6.4l1.7-1L16,0L0,9.2v18.5l16,9.2l16-9.2V12.9L30.3,13.9z"/>
  <!-- R letterform -->
  <path d="M12,26.8H9.6v-8h8c0.8,0,1.5-0.3,2-0.9c0.5-0.5,0.8-1.3,0.8-2c0-0.4-0.1-0.7-0.2-1.1c-0.1-0.3-0.4-0.7-0.6-0.9c-0.3-0.3-0.6-0.5-0.9-0.6S18,13,17.6,13h-8v-2.4h8c1.4,0,2.7,0.6,3.7,1.6c1,1,1.6,2.3,1.6,3.7c0,1.1-0.3,2.1-0.9,3c-0.6,0.8-1.4,1.5-2.3,1.9c-0.9,0.3-1.9,0.4-2.9,0.4H12V26.8z"/>
  <!-- R leg diagonal -->
  <path d="M22.8,26.6H20l-2.2-3.8c0.9-0.1,1.7-0.2,2.5-0.5L22.8,26.6z"/>
  <!-- Small hexagonal dot -->
  <path d="M28.7,11.2l1.7,0.9l1.7-0.9V9.2l-1.7-1l-1.7,1V11.2z"/>
</svg>